<?xml version="1.0" encoding="UTF-8" standalone="no"?>
<svg
   version="1.1"
   id="Layer_1"
   x="0px"
   y="0px"
   viewBox="0 0 56.9 56.9"
   style="enable-background:new 0 0 56.9 56.9;"
   xml:space="preserve"
   sodipodi:docname="atos-logo.svg"
   inkscape:version="1.1.1 (3bf5ae0d25, 2021-09-20)"
   xmlns:inkscape="http://www.inkscape.org/namespaces/inkscape"
   xmlns:sodipodi="http://sodipodi.sourceforge.net/DTD/sodipodi-0.dtd"
   xmlns="http://www.w3.org/2000/svg"
   xmlns:svg="http://www.w3.org/2000/svg"><defs
   id="defs9105" /><sodipodi:namedview
   id="namedview9103"
   pagecolor="#505050"
   bordercolor="#eeeeee"
   borderopacity="1"
   inkscape:pageshadow="0"
   inkscape:pageopacity="0"
   inkscape:pagecheckerboard="0"
   showgrid="false"
   inkscape:zoom="15.342706"
   inkscape:cx="28.417412"
   inkscape:cy="28.417412"
   inkscape:window-width="2503"
   inkscape:window-height="1363"
   inkscape:window-x="1299"
   inkscape:window-y="0"
   inkscape:window-maximized="0"
   inkscape:current-layer="Layer_1" />
 <style
   type="text/css"
   id="style9098">
  .st0{fill:#0596FF;}
 </style>
 <path
   class="st0"
   d="M44.1,33.8c-6.9-2-12-8.8-12-16.9c0-1.9,0.3-3.7,0.8-5.3c6.9,2,12,8.8,12,16.9C44.8,30.3,44.6,32.1,44.1,33.8   M56.9,28.4c0-11.8-7.2-21.9-17.4-26.2l0,0C36.1,0.8,32.4,0,28.4,0c-1,0-2,0.1-3,0.2C22,4.9,20,10.6,20,16.9  c0,11.8,7.2,21.9,17.4,26.2c-2.6,1.8-5.6,2.8-8.9,2.8c-9.1,0-16.4-7.8-16.4-17.5c0-4.2,1.4-8,3.7-11c0-4.4,1.6-12.5,4-16  C8.2,5.1,0,16,0,28.4c0,5,1.3,9.6,3.5,13.7l0.3,0.3c1.3,2.3,2.9,4.4,4.8,6.3l0.2,0.2c5.1,4.9,12,7.9,19.7,7.9l0,0l0,0  C43.9,56.8,56.9,44.2,56.9,28.4"
   id="path9100"
   style="fill:#000000">
 </path>
</svg>
