<?xml version="1.0" encoding="UTF-8" standalone="no"?>
<!-- Uploaded to: SVG Repo, www.svgrepo.com, Generator: SVG Repo Mixer Tools -->

<svg
   width="40"
   height="40"
   viewBox="0 0 1.2 1.2"
   version="1.1"
   id="svg6"
   sodipodi:docname="co2_save.svg"
   inkscape:version="1.1.1 (3bf5ae0d25, 2021-09-20)"
   inkscape:export-filename="C:\Development\qems_demo\assets\co2_save.png"
   inkscape:export-xdpi="4.8000002"
   inkscape:export-ydpi="4.8000002"
   xmlns:inkscape="http://www.inkscape.org/namespaces/inkscape"
   xmlns:sodipodi="http://sodipodi.sourceforge.net/DTD/sodipodi-0.dtd"
   xmlns="http://www.w3.org/2000/svg"
   xmlns:svg="http://www.w3.org/2000/svg">
  <defs
     id="defs10" />
  <sodipodi:namedview
     id="namedview8"
     pagecolor="#505050"
     bordercolor="#eeeeee"
     borderopacity="1"
     inkscape:pageshadow="0"
     inkscape:pageopacity="0"
     inkscape:pagecheckerboard="0"
     showgrid="false"
     inkscape:zoom="16.320025"
     inkscape:cx="13.112725"
     inkscape:cy="17.647032"
     inkscape:window-width="2503"
     inkscape:window-height="1363"
     inkscape:window-x="1299"
     inkscape:window-y="0"
     inkscape:window-maximized="0"
     inkscape:current-layer="svg6" />
  <path
     id="path2"
     style="fill:#ff5269;fill-opacity:1;stroke-width:0.0492471"
     d="m 0.97553657,0.01245981 c -0.048,0.1010526 -0.38402343,0.11371198 -0.62402343,0.16423828 -0.24000001,0.0505263 -0.33597657,0.26521695 -0.33597657,0.36626955 0.0066214,0.0714005 0.03625044,0.1382673 0.08396484,0.18949218 0.156,-0.46736841 0.63603516,-0.46734376 0.63603516,-0.46734376 -0.432,0.10105261 -0.53279672,0.41278291 -0.63263672,0.67400392 l 0.0907031,0.0333398 0.0479883,-0.11619141 C 0.27097662,0.79261369 0.3333524,0.67928251 0.3967475,0.62992075 0.51712625,0.53897431 0.6205781,0.55315459 0.74943362,0.59505865 0.91770539,0.33503878 0.97553657,0.01245981 0.97553657,0.01245981 Z"
     sodipodi:nodetypes="csccccccccc" />
  <g
     aria-label="CO"
     id="text2569"
     style="font-weight:bold;font-size:0.519062px;line-height:1.25;font-family:Raleway;-inkscape-font-specification:'Raleway, Bold';stroke-width:0.0129765;fill:#ff5269;fill-opacity:1">
    <path
       d="m 0.34682461,0.81245307 q 0,-0.033739 0.0119384,-0.0664399 0.0124575,-0.03322 0.0358153,-0.0591731 0.0233578,-0.0259531 0.0570968,-0.042044 0.033739,-0.0160909 0.0768212,-0.0160909 0.0508681,0 0.0877215,0.0223197 0.0373725,0.0223197 0.0555396,0.0581349 l -0.0550206,0.0378915 q -0.007267,-0.0155719 -0.0176481,-0.0259531 -0.0103812,-0.0109003 -0.0223197,-0.0171291 -0.0119384,-0.006229 -0.024915,-0.008824 -0.0129765,-0.003114 -0.025434,-0.003114 -0.0269912,0 -0.0472346,0.0109003 -0.0197244,0.0109003 -0.03322,0.0285484 -0.0129765,0.017129 -0.0197244,0.0394487 -0.006748,0.0218006 -0.006748,0.0436012 0,0.0243959 0.007786,0.0472346 0.007786,0.0223197 0.0218006,0.0394487 0.0145337,0.017129 0.0342581,0.0275103 0.0202434,0.0103812 0.0441203,0.0103812 0.0124575,0 0.0259531,-0.003114 0.0134956,-0.003114 0.025434,-0.009862 0.0124575,-0.006748 0.0228387,-0.017129 0.0103812,-0.0109003 0.01661,-0.0259531 l 0.058654,0.033739 q -0.008824,0.0207625 -0.025434,0.0368534 -0.0160909,0.0155719 -0.0368534,0.0264722 -0.0202434,0.0109003 -0.0436012,0.01661 -0.0233578,0.00571 -0.0456775,0.00571 -0.0394487,0 -0.0721496,-0.01661 -0.0327009,-0.01661 -0.0565778,-0.0430821 -0.0233578,-0.0269912 -0.0368534,-0.0607303 -0.0129766,-0.0342581 -0.0129766,-0.0695543 z"
       id="path9168"
       style="fill:#ff5269;fill-opacity:1" />
    <path
       d="m 0.8788616,1.0019107 q -0.0404868,0 -0.0737068,-0.0155719 -0.0327009,-0.0160909 -0.0565777,-0.042044 -0.0233578,-0.0264722 -0.0363343,-0.0602112 -0.0129765,-0.033739 -0.0129765,-0.0690352 0,-0.0368534 0.0134956,-0.0705924 0.0140147,-0.033739 0.0378915,-0.0596921 0.0243959,-0.0259531 0.0576159,-0.0410059 0.03322,-0.0155719 0.0721496,-0.0155719 0.0399678,0 0.0726687,0.01661 0.03322,0.0160909 0.0565777,0.0425631 0.023358,0.0264722 0.036334,0.0602112 0.012976,0.033739 0.012976,0.0685162 0,0.0368534 -0.013496,0.0705924 -0.013496,0.03322 -0.037373,0.0591731 -0.0238768,0.025434 -0.0570968,0.0410059 -0.03322,0.0150528 -0.0721496,0.0150528 z M 0.77193484,0.81504838 q 0,0.0238768 0.007267,0.0461965 0.007267,0.0223197 0.0207625,0.0394487 0.0140147,0.017129 0.033739,0.0275103 0.0202434,0.0103812 0.0456775,0.0103812 0.0259531,0 0.0456775,-0.0103812 0.0202434,-0.0109003 0.033739,-0.0285484 0.0140147,-0.0176481 0.0207625,-0.0394487 0.007267,-0.0223197 0.007267,-0.0451584 0,-0.0238769 -0.007786,-0.0461965 -0.007267,-0.0223197 -0.0212815,-0.0394487 -0.0134956,-0.017129 -0.033739,-0.0269912 -0.0197244,-0.0103812 -0.0446393,-0.0103812 -0.0259531,0 -0.0461965,0.0109003 -0.0202434,0.0103812 -0.033739,0.0280293 -0.0134956,0.017129 -0.0207625,0.0394487 -0.006748,0.0218006 -0.006748,0.0446393 z"
       id="path9170"
       style="fill:#ff5269;fill-opacity:1" />
  </g>
  <g
     aria-label="2"
     id="text4817"
     style="font-weight:bold;font-size:0.348744px;line-height:1.25;font-family:Raleway;-inkscape-font-specification:'Raleway, Bold';stroke-width:0.00871859;fill:#ff5269;fill-opacity:1">
    <path
       d="m 1.0060522,1.1334219 q 0,-0.015694 0.00244,-0.028248 0.00244,-0.012904 0.00837,-0.023715 0.00628,-0.010811 0.01674,-0.020227 0.010811,-0.00942 0.027202,-0.018483 0.014298,-0.00767 0.025109,-0.013252 0.01116,-0.00593 0.018484,-0.010811 0.00732,-0.00488 0.01116,-0.00976 0.00384,-0.00523 0.00384,-0.0118573 0,-0.0104623 -0.00837,-0.0177859 -0.00837,-0.007672 -0.024063,-0.007672 -0.00837,0 -0.015345,0.002441 -0.00697,0.002092 -0.013252,0.005929 -0.00593,0.003836 -0.01116,0.008719 -0.00488,0.004534 -0.00907,0.009765 l -0.029992,-0.0345257 q 0.00453,-0.004882 0.012903,-0.0104623 0.00837,-0.005929 0.01953,-0.0108111 0.011509,-0.005231 0.02511,-0.00837 0.01395,-0.003487 0.029643,-0.003487 0.017786,0 0.031736,0.004534 0.01395,0.004185 0.023366,0.012206 0.00976,0.007672 0.014647,0.0188322 0.00523,0.0108111 0.00523,0.0237146 0,0.0122061 -0.00453,0.0216221 -0.00453,0.00942 -0.011508,0.01674 -0.00697,0.00732 -0.015345,0.012903 -0.00802,0.00523 -0.015694,0.00942 -0.00628,0.00349 -0.014298,0.00802 -0.00802,0.00453 -0.016042,0.010114 -0.00767,0.00523 -0.014298,0.01116 -0.00663,0.00558 -0.010114,0.01116 h 0.1056695 v 0.042198 z"
       id="path9165"
       style="fill:#ff5269;fill-opacity:1" />
  </g>
</svg>
