<?xml version="1.0" encoding="UTF-8" standalone="no"?>
<!-- Uploaded to: SVG Repo, www.svgrepo.com, Generator: SVG Repo Mixer Tools -->

<svg
   width="40"
   height="40"
   viewBox="0 0 1.2 1.2"
   version="1.1"
   id="svg6"
   sodipodi:docname="gears.svg"
   inkscape:version="1.1.1 (3bf5ae0d25, 2021-09-20)"
   inkscape:export-filename="C:\Development\qems_demo\assets\gears_white.png"
   inkscape:export-xdpi="96"
   inkscape:export-ydpi="96"
   xmlns:inkscape="http://www.inkscape.org/namespaces/inkscape"
   xmlns:sodipodi="http://sodipodi.sourceforge.net/DTD/sodipodi-0.dtd"
   xmlns="http://www.w3.org/2000/svg"
   xmlns:svg="http://www.w3.org/2000/svg">
  <defs
     id="defs10">
    <style
       id="style822">.cls-1{fill:none;stroke:#000000;stroke-linecap:round;stroke-linejoin:round;stroke-width:20px;}</style>
  </defs>
  <sodipodi:namedview
     id="namedview8"
     pagecolor="#505050"
     bordercolor="#eeeeee"
     borderopacity="1"
     inkscape:pageshadow="0"
     inkscape:pageopacity="0"
     inkscape:pagecheckerboard="0"
     showgrid="false"
     inkscape:zoom="22.627417"
     inkscape:cx="15.026019"
     inkscape:cy="21.213203"
     inkscape:window-width="2503"
     inkscape:window-height="1363"
     inkscape:window-x="1299"
     inkscape:window-y="0"
     inkscape:window-maximized="0"
     inkscape:current-layer="svg6" />
  <rect
     width="24"
     height="24"
     fill="none"
     id="rect4"
     x="0"
     y="0" />
  <g
     data-name="E404, gear, Media, media player, multimedia"
     id="E404_gear_Media_media_player_multimedia"
     transform="matrix(0.00212952,0,0,0.00212094,0.06085882,0.05703936)"
     style="stroke:#ffffff">
    <path
       class="cls-1"
       d="M 373.59,340.89 V 299.52 A 18.84,18.84 0 0 0 354.75,280.68 H 333.48 A 18.92,18.92 0 0 1 316,268.91 l -0.1,-0.24 a 19,19 0 0 1 4,-20.71 l 15,-15 a 18.83,18.83 0 0 0 0,-26.64 L 305.72,177 a 18.83,18.83 0 0 0 -26.64,0 l -15,15 a 19,19 0 0 1 -20.71,4 l -0.24,-0.1 a 18.92,18.92 0 0 1 -11.77,-17.46 v -21.19 a 18.84,18.84 0 0 0 -18.84,-18.84 h -41.41 a 18.84,18.84 0 0 0 -18.84,18.84 v 21.27 A 18.92,18.92 0 0 1 140.5,196 l -0.24,0.1 a 19,19 0 0 1 -20.71,-4 l -15,-15 a 18.83,18.83 0 0 0 -26.64,0 l -29.29,29.18 a 18.83,18.83 0 0 0 0,26.64 l 15,15 a 19,19 0 0 1 4,20.71 l -0.1,0.24 A 18.92,18.92 0 0 1 50.06,280.64 H 28.84 A 18.84,18.84 0 0 0 10,299.52 v 41.37 a 18.84,18.84 0 0 0 18.84,18.84 h 21.27 a 18.92,18.92 0 0 1 17.46,11.77 l 0.1,0.24 a 19,19 0 0 1 -4,20.71 l -15,15 a 18.83,18.83 0 0 0 0,26.64 l 29.25,29.25 a 18.83,18.83 0 0 0 26.64,0 l 15,-15 a 19,19 0 0 1 20.71,-4 l 0.24,0.1 a 18.92,18.92 0 0 1 11.77,17.46 v 21.27 A 18.84,18.84 0 0 0 171.11,502 h 41.37 a 18.84,18.84 0 0 0 18.84,-18.84 v -21.27 a 18.92,18.92 0 0 1 11.77,-17.46 l 0.24,-0.1 a 19,19 0 0 1 20.71,4 l 15,15 a 18.83,18.83 0 0 0 26.64,0 L 335,434.13 a 18.83,18.83 0 0 0 0,-26.64 l -15,-15 a 19,19 0 0 1 -4,-20.71 l 0.1,-0.24 a 18.92,18.92 0 0 1 17.46,-11.77 h 21.27 a 18.84,18.84 0 0 0 18.76,-18.88 z"
       id="path826"
       style="stroke:#ffffff" />
    <circle
       class="cls-1"
       cx="191.8"
       cy="320.20001"
       r="74.800003"
       id="circle828"
       style="stroke:#ffffff" />
    <path
       class="cls-1"
       d="M 207.45,138.41 V 138 a 15,15 0 0 1 15,-15 h 16.9 a 15,15 0 0 0 13.88,-9.35 c 0,-0.06 0.05,-0.13 0.08,-0.19 A 15.06,15.06 0 0 0 250.09,97 l -12,-11.94 a 15,15 0 0 1 0,-21.17 l 23.24,-23.24 a 15,15 0 0 1 21.16,0 l 11.95,12 a 15.07,15.07 0 0 0 16.45,3.18 l 0.19,-0.08 a 15,15 0 0 0 9.36,-13.88 V 25 a 15,15 0 0 1 15,-15 h 32.87 a 15,15 0 0 1 15,15 v 16.9 a 15,15 0 0 0 9.35,13.88 l 0.18,0.08 a 15.09,15.09 0 0 0 16.46,-3.18 l 12,-12 a 15,15 0 0 1 21.16,0 l 23.24,23.24 a 15,15 0 0 1 0,21.17 L 453.68,97 a 15.05,15.05 0 0 0 -3.17,16.46 l 0.07,0.19 a 15,15 0 0 0 13.87,9.35 h 16.9 a 15,15 0 0 1 15,15 v 32.86 a 15,15 0 0 1 -15,15 h -16.9 a 15,15 0 0 0 -13.87,9.36 l -0.07,0.18 a 15,15 0 0 0 3.17,16.46 l 11.95,11.95 a 15,15 0 0 1 0,21.16 l -23.24,23.24 a 15,15 0 0 1 -21.16,0 l -12,-11.95 a 15,15 0 0 0 -16.46,-3.18 l -0.18,0.07 a 15,15 0 0 0 -9.3,13.85 v 16.9 a 15,15 0 0 1 -9.77,14"
       id="path830"
       style="stroke:#ffffff" />
    <circle
       class="cls-1"
       cx="351.88"
       cy="154.42999"
       r="48.689999"
       id="circle832"
       style="stroke:#ffffff" />
  </g>
</svg>
